PathFileType	4	(X/Y/Z)	D:\Share\Shared_Data\Ergonomics\Sit To Stand Pertubation\S1\Perturbed_NoHarness.trc
DataRate	CameraRate	NumFrames	NumMarkers	Units	OrigDataRate	OrigDataStartFrame	OrigNumFrames	
100	100	14	18	m	100	2441	171
Frame#	Time	L_ASIS			R_ASIS			R_Pelvis			V_Sacral			L_Pelvis			Clavical			R_Acromium			L_Acromium			Sternum			Torso			R_Thigh_Med			R_Thigh_Lat			R_Thigh			R_Shank_Med			R_Shank_Lat			R_Shank			R_Heel			R_Toe			
		X1	Y1	Z1	X2	Y2	Z2	X3	Y3	Z3	X4	Y4	Z4	X5	Y5	Z5	X6	Y6	Z6	X7	Y7	Z7	X8	Y8	Z8	X9	Y9	Z9	X10	Y10	Z10	X11	Y11	Z11	X12	Y12	Z12	X13	Y13	Z13	X14	Y14	Z14	X15	Y15	Z15	X16	Y16	Z16	X17	Y17	Z17	X18	Y18	Z18	

2441	24.4	-0.0043142562	0.64890015	-0.099051163	-0.0084383936	0.63856702	0.10299271	-0.090191956	0.63222485	0.13641599	-0.19423076	0.57299335	0.013536853	-0.098353951	0.63121442	-0.13823752	0.012820071	0.96688208	-0.002932132	-0.046160507	1.0397303	0.14574046	-0.090478081	0.99340063	-0.20383174	-0.00068936592	0.98065564	0.09903331	0.01027896	0.96968951	-0.063097275	0.28712415	0.41399222	0.037030396	0.28521106	0.43696634	0.15747615	0.15811833	0.54656775	0.1077974	0.32681049	0.095557663	0.098662033	0.3013996	0.098584412	0.17689	0.28837146	0.31084607	0.18087314	0.2599212	0.033021626	0.12121661	0.4642692	0.051301525	0.14090327
2442	24.41	-0.0040455794	0.64872632	-0.099086067	-0.0083259993	0.63839539	0.10303291	-0.09004258	0.63262738	0.13680624	-0.19418509	0.57302179	0.013521929	-0.098196152	0.6312395	-0.13823785	0.014029203	0.96657782	-0.00289691	-0.044824574	1.0395649	0.14576079	-0.089101692	0.99340277	-0.20379797	0.00051251405	0.98036859	0.099064354	0.011593242	0.96937018	-0.063176109	0.28705658	0.41401443	0.036987812	0.28515851	0.43698215	0.15744347	0.15805179	0.5466991	0.10791975	0.32684247	0.095597115	0.098595428	0.30138342	0.09860598	0.17683685	0.28831827	0.31086191	0.18083156	0.25992206	0.033030483	0.12119788	0.4642757	0.051321194	0.14088394
2443	24.42	-0.003776037	0.64854712	-0.099117516	-0.008217392	0.63821875	0.10307494	-0.089903343	0.63301129	0.13717986	-0.19414098	0.57305048	0.013508253	-0.098038826	0.63126538	-0.13823239	0.015396966	0.96622607	-0.0028629632	-0.043283321	1.0393907	0.14577606	-0.087553108	0.9934115	-0.2037686	0.0018805556	0.98004303	0.099092339	0.013064621	0.96900067	-0.063261292	0.28698386	0.41404245	0.03695451	0.28509732	0.4370018	0.15741977	0.15795197	0.54686011	0.10807359	0.32687027	0.095639915	0.098526573	0.30136426	0.098627495	0.17678036	0.28825656	0.31087738	0.18079526	0.25992258	0.033039024	0.12117747	0.46428159	0.051342369	0.14086438
2444	24.43	-0.003504323	0.64836194	-0.099144119	-0.0081057673	0.63803705	0.10311646	-0.089778488	0.63336761	0.13752519	-0.19409799	0.57308118	0.013495641	-0.097880356	0.63129309	-0.13821968	0.01693465	0.96582593	-0.0028302455	-0.041520325	1.0392075	0.14578688	-0.085822044	0.99342883	-0.2037444	0.0034279027	0.97967761	0.099117599	0.014703688	0.96857935	-0.063350521	0.2869061	0.41407608	0.036931442	0.28502756	0.43702515	0.15740584	0.15781575	0.54705267	0.10826085	0.32689279	0.095685692	0.098456085	0.30134171	0.098648323	0.17672075	0.28818588	0.31089197	0.18076521	0.25992255	0.033047012	0.12115534	0.46428677	0.051365303	0.14084485
2445	24.44	-0.0032281282	0.64816998	-0.099164574	-0.0079816709	0.63784894	0.10315449	-0.089673164	0.63369116	0.13783432	-0.19405548	0.5731156	0.013483753	-0.097718254	0.63132355	-0.13819843	0.018652651	0.96537653	-0.0027984893	-0.039520607	1.0390144	0.14579414	-0.083899162	0.99345636	-0.20372603	0.0051667662	0.97927075	0.099140732	0.016520466	0.96810443	-0.063441051	0.28682339	0.41411508	0.036919609	0.28494943	0.43705209	0.15740251	0.15764133	0.54727832	0.10848283	0.32690924	0.095734093	0.098384583	0.3013157	0.09866787	0.1766584	0.28810611	0.31090506	0.18074242	0.25992191	0.033054253	0.12113148	0.46429129	0.051390358	0.14082568
2446	24.45	-0.0029442437	0.64797028	-0.099177849	-0.0078330135	0.63765234	0.10318549	-0.089593498	0.63398047	0.13810316	-0.19401259	0.57315564	0.013472124	-0.097549324	0.63135791	-0.13816765	0.020560457	0.9648772	-0.0027671952	-0.037270763	1.0388103	0.14579901	-0.081776016	0.99349481	-0.20371385	0.0071082621	0.97882092	0.099162651	0.01852438	0.96757446	-0.063529888	0.2867359	0.41415881	0.036919964	0.28486322	0.43708237	0.15741066	0.15742857	0.5475376	0.10873994	0.32691904	0.095784798	0.098312752	0.30128616	0.098685448	0.17659377	0.28801727	0.31091629	0.18072791	0.25992062	0.033060574	0.12110594	0.46429547	0.051417961	0.14080714
2447	24.46	-0.0026487522	0.64776086	-0.099183182	-0.0076453586	0.63744434	0.10320536	-0.089546661	0.63423706	0.1383313	-0.19396819	0.57320349	0.01346017	-0.097369804	0.63139722	-0.13812683	0.02266671	0.96432703	-0.0027356391	-0.034759029	1.0385927	0.14580299	-0.079444969	0.99354382	-0.20370787	0.0092623158	0.97832623	0.09918454	0.020724253	0.96698779	-0.06361393	0.2866438	0.41420685	0.036933365	0.28476962	0.43711554	0.1574312	0.15717946	0.54782977	0.10903165	0.32692172	0.095837471	0.098241264	0.3012533	0.098700508	0.17652733	0.28791971	0.31092529	0.18072267	0.2599187	0.033065876	0.12107877	0.4642995	0.051448654	0.14078947
2448	24.47	-0.0023372769	0.6475401	-0.099180168	-0.0074025645	0.63722101	0.10320963	-0.089540489	0.63446564	0.13852162	-0.19392119	0.57326117	0.013447249	-0.097175552	0.63144238	-0.13807584	0.024979338	0.96372491	-0.0027028854	-0.031975172	1.0383585	0.14580774	-0.076899063	0.99360187	-0.20370757	0.011637646	0.97778448	0.099207779	0.023128361	0.96634271	-0.063690147	0.28654758	0.41425845	0.036960495	0.28466949	0.43715125	0.15746497	0.15689804	0.54815277	0.10935619	0.32691724	0.095891815	0.098170784	0.30121747	0.098712555	0.17645966	0.28781418	0.31093188	0.18072766	0.25991605	0.033070126	0.12105009	0.46430392	0.051482998	0.14077303
2449	24.48	-0.0020052645	0.6473056	-0.099168808	-0.0070878367	0.63697784	0.10319372	-0.089582893	0.63467273	0.13867979	-0.19387035	0.57333008	0.013432702	-0.096962357	0.6314942	-0.13801494	0.027505739	0.96306866	-0.0026678114	-0.02891028	1.0381035	0.14581517	-0.07413179	0.99366577	-0.20371158	0.014241812	0.97719269	0.099233925	0.025744541	0.96563702	-0.063755764	0.2864476	0.41431277	0.037001747	0.2845639	0.437189	0.15751265	0.15659047	0.54850311	0.10971066	0.32690561	0.095947487	0.098101967	0.30117923	0.098721306	0.1763913	0.28770181	0.31093597	0.18074373	0.25991272	0.033073376	0.12102008	0.46430936	0.051521614	0.14075803
2450	24.49	-0.001648263	0.64705542	-0.099149437	-0.0066852598	0.6367099	0.10315334	-0.08968074	0.63486633	0.13881319	-0.19381445	0.57341205	0.013415899	-0.096726097	0.63155341	-0.13794492	0.030252962	0.9623551	-0.0026291423	-0.025556477	1.0378223	0.14582712	-0.071136673	0.99373096	-0.2037177	0.017081341	0.97654706	0.099264618	0.028580303	0.96486792	-0.063808216	0.2863447	0.41436923	0.037057224	0.28445419	0.43722824	0.15757472	0.15626483	0.54887592	0.11009093	0.32688712	0.096004158	0.098035355	0.30113947	0.098726631	0.17632286	0.28758429	0.31093777	0.18077153	0.25990887	0.033075752	0.12098888	0.46431668	0.05156509	0.14074466
2451	24.5	-0.0012621708	0.64678717	-0.099122726	-0.0061818223	0.63641229	0.10308521	-0.089838264	0.63505493	0.13892975	-0.19375233	0.57350818	0.013396294	-0.096462997	0.63162024	-0.13786687	0.033227894	0.96157959	-0.0025854893	-0.021906553	1.0375087	0.14584535	-0.067907066	0.99379126	-0.20372229	0.020161907	0.97584283	0.099301544	0.031642973	0.96403241	-0.063845196	0.28623965	0.41442688	0.037126644	0.28434195	0.43726849	0.15765144	0.15593051	0.54926514	0.11049186	0.32686212	0.096061447	0.097971504	0.30109909	0.09872863	0.17625479	0.2874635	0.31093744	0.18081151	0.25990466	0.033077457	0.12095673	0.46432672	0.051613983	0.14073306
2452	24.51	-0.00084342963	0.64649854	-0.099089615	-0.0055699239	0.63608026	0.10298791	-0.090054955	0.6352464	0.13903677	-0.19368282	0.57361932	0.013373459	-0.096169777	0.63169476	-0.1377823	0.036437405	0.96073547	-0.0025354025	-0.017953615	1.0371561	0.14587138	-0.064435646	0.9938396	-0.2037202	0.023488541	0.97507428	0.099346306	0.034939854	0.96312628	-0.063864498	0.28613348	0.41448514	0.037209343	0.28422867	0.43730917	0.15774263	0.15559773	0.54966357	0.11090755	0.32683127	0.09611898	0.097910851	0.30105911	0.0987276	0.17618758	0.28734161	0.31093536	0.18086386	0.25990018	0.033078724	0.12092384	0.46434052	0.051668736	0.14072334
2453	24.52	-0.00038914043	0.64618774	-0.099051186	-0.004850275	0.63571069	0.10286284	-0.090322899	0.63544696	0.13913911	-0.19360497	0.57374603	0.013347108	-0.09584375	0.63177692	-0.13769292	0.039888439	0.95981445	-0.0024774239	-0.013690739	1.0367565	0.14590631	-0.06071426	0.99386768	-0.20370445	0.027065872	0.97423425	0.099400337	0.038478325	0.96214539	-0.06386385	0.28602719	0.41454318	0.037304256	0.28411588	0.43734982	0.15784784	0.15527667	0.55006342	0.11133167	0.32679501	0.096176308	0.097853752	0.3010206	0.098723984	0.17612154	0.28722079	0.31093198	0.18092836	0.25989569	0.0330798	0.12089046	0.46435901	0.051729698	0.14071552
2454	24.53	0.00010290443	0.64585266	-0.099008568	-0.0040350122	0.63530176	0.10271548	-0.09062394	0.63566071	0.13923782	-0.19351787	0.57388879	0.013317117	-0.095482849	0.6318667	-0.13760052	0.043588058	0.95880548	-0.0024101472	-0.0091106749	1.0363015	0.14595064	-0.056733551	0.99386658	-0.203666	0.030898371	0.97331488	0.099464912	0.042265965	0.96108429	-0.063840633	0.28592166	0.41460043	0.037409973	0.28400485	0.43738983	0.15796613	0.15497675	0.55045697	0.11175778	0.32675391	0.096232948	0.097800545	0.30098428	0.098718346	0.17605699	0.28710312	0.3109277	0.18100452	0.25989124	0.033080883	0.1208568	0.46438318	0.051797035	0.14070943
